<svg xmlns="http://www.w3.org/2000/svg" xmlns:xlink="http://www.w3.org/1999/xlink" contentStyleType="text/css" height="142px" preserveAspectRatio="none" style="width:125px;height:142px;background:#FFFFFF;" version="1.1" viewBox="0 0 125 142" width="125px" zoomAndPan="magnify"><defs/><g><!--cluster ac5ca94298d93ce3e9c4fc2bc62f90f2--><g id="cluster_ac5ca94298d93ce3e9c4fc2bc62f90f2"><path d="M8.5,6 L105.5,6 A3.75,3.75 0 0 1 108,8.5 L115,28.2969 L115.5,28.2969 A2.5,2.5 0 0 1 118,30.7969 L118,133.39 A2.5,2.5 0 0 1 115.5,135.89 L8.5,135.89 A2.5,2.5 0 0 1 6,133.39 L6,8.5 A2.5,2.5 0 0 1 8.5,6 " fill="none" style="stroke:#000000;stroke-width:1.5;"/><line style="stroke:#000000;stroke-width:1.5;" x1="6" x2="115" y1="28.2969" y2="28.2969"/><text fill="#000000" font-family="sans-serif" font-size="14" font-weight="bold" lengthAdjust="spacing" textLength="96" x="10" y="20.9951">proj_lawyer/</text></g><!--entity cfc33c1b280e1ee80f8bae6e6bfb95b6--><g id="elem_cfc33c1b280e1ee80f8bae6e6bfb95b6"><rect fill="#F1F1F1" height="78.8906" rx="2.5" ry="2.5" style="stroke:#181818;stroke-width:0.5;" width="70" x="27" y="41"/><rect fill="#F1F1F1" height="10" style="stroke:#181818;stroke-width:0.5;" width="15" x="77" y="46"/><rect fill="#F1F1F1" height="2" style="stroke:#181818;stroke-width:0.5;" width="4" x="75" y="48"/><rect fill="#F1F1F1" height="2" style="stroke:#181818;stroke-width:0.5;" width="4" x="75" y="52"/><text fill="#000000" font-family="sans-serif" font-size="14" font-weight="bold" lengthAdjust="spacing" textLength="30" x="42" y="73.9951">urls</text><text fill="#000000" font-family="sans-serif" font-size="14" lengthAdjust="spacing" textLength="4" x="42" y="90.292">&#160;</text><text fill="#000000" font-family="sans-serif" font-size="14" lengthAdjust="spacing" textLength="4" x="42" y="106.5889">&#160;</text></g><!--SRC=[1S513i8W4030-xw2zCX52YrXtsACMTQbgL8WL5EDyU_EKCxrsDRtMXPen0zQH0sjr_irq_6HVXeKxOfuPiB9OhYXOt62F2MsaRrDQ99LN-2wjLgaF1KdTex7Q8EHKIIO52A95nzJn3bwTGQjNptlMWF01Nv_]--></g></svg>