<svg xmlns="http://www.w3.org/2000/svg" xmlns:xlink="http://www.w3.org/1999/xlink" contentStyleType="text/css" height="640px" preserveAspectRatio="none" style="width:682px;height:640px;background:#FFFFFF;" version="1.1" viewBox="0 0 682 640" width="682px" zoomAndPan="magnify"><defs/><g><!--cluster d77d5e503ad1439f585ac494268b351b--><g id="cluster_d77d5e503ad1439f585ac494268b351b"><polygon fill="none" points="479,16,489,6,665,6,665,163.49,655,173.49,479,173.49,479,16" style="stroke:#181818;stroke-width:1.0;"/><line style="stroke:#181818;stroke-width:1.0;" x1="655" x2="665" y1="16" y2="6"/><line style="stroke:#181818;stroke-width:1.0;" x1="479" x2="655" y1="16" y2="16"/><line style="stroke:#181818;stroke-width:1.0;" x1="655" x2="655" y1="16" y2="173.49"/><text fill="#000000" font-family="sans-serif" font-size="14" font-weight="bold" lengthAdjust="spacing" textLength="21" x="557.5" y="31.9951">Db</text></g><!--cluster b63d220aa4fcfcfb2b581071967490d9--><g id="cluster_b63d220aa4fcfcfb2b581071967490d9"><polygon fill="none" points="16,16,26,6,258,6,258,284.49,248,294.49,16,294.49,16,16" style="stroke:#181818;stroke-width:1.0;"/><line style="stroke:#181818;stroke-width:1.0;" x1="248" x2="258" y1="16" y2="6"/><line style="stroke:#181818;stroke-width:1.0;" x1="16" x2="248" y1="16" y2="16"/><line style="stroke:#181818;stroke-width:1.0;" x1="248" x2="248" y1="16" y2="294.49"/><text fill="#000000" font-family="sans-serif" font-size="14" font-weight="bold" lengthAdjust="spacing" textLength="67" x="99.5" y="31.9951">Pgadmin</text></g><!--cluster 8107010ef1deab9bb1b8038defda76f1--><g id="cluster_8107010ef1deab9bb1b8038defda76f1"><polygon fill="none" points="282,32.3,292,22.3,455,22.3,455,521.78,445,531.78,282,531.78,282,32.3" style="stroke:#181818;stroke-width:1.0;"/><line style="stroke:#181818;stroke-width:1.0;" x1="445" x2="455" y1="32.3" y2="22.3"/><line style="stroke:#181818;stroke-width:1.0;" x1="282" x2="445" y1="32.3" y2="32.3"/><line style="stroke:#181818;stroke-width:1.0;" x1="445" x2="445" y1="32.3" y2="531.78"/><text fill="#000000" font-family="sans-serif" font-size="14" font-weight="bold" lengthAdjust="spacing" textLength="97" x="316" y="48.2951">Backend_api</text></g><!--entity 355aeb7ac3f8fa43e8d94fbf0e4b8d6c--><g id="elem_355aeb7ac3f8fa43e8d94fbf0e4b8d6c"><rect fill="#F1F1F1" height="111.4844" rx="2.5" ry="2.5" style="stroke:#181818;stroke-width:0.5;" width="153" x="495.5" y="46"/><rect fill="#F1F1F1" height="10" style="stroke:#181818;stroke-width:0.5;" width="15" x="628.5" y="51"/><rect fill="#F1F1F1" height="2" style="stroke:#181818;stroke-width:0.5;" width="4" x="626.5" y="53"/><rect fill="#F1F1F1" height="2" style="stroke:#181818;stroke-width:0.5;" width="4" x="626.5" y="57"/><text fill="#000000" font-family="sans-serif" font-size="14" font-weight="bold" lengthAdjust="spacing" textLength="20" x="510.5" y="78.9951">db</text><text fill="#000000" font-family="sans-serif" font-size="14" lengthAdjust="spacing" textLength="4" x="510.5" y="95.292">&#160;</text><text fill="#000000" font-family="sans-serif" font-size="14" lengthAdjust="spacing" textLength="113" x="510.5" y="111.5889">image: postgres</text><text fill="#000000" font-family="sans-serif" font-size="14" lengthAdjust="spacing" textLength="99" x="510.5" y="127.8857">restart: always</text><text fill="#000000" font-family="sans-serif" font-size="14" lengthAdjust="spacing" textLength="4" x="510.5" y="144.1826">&#160;</text></g><!--entity dd0cbcfb754ff3bdc32631c9166e8d91--><g id="elem_dd0cbcfb754ff3bdc32631c9166e8d91"><rect fill="#F1F1F1" height="111.4844" rx="2.5" ry="2.5" style="stroke:#181818;stroke-width:0.5;" width="209" x="32.5" y="46"/><rect fill="#F1F1F1" height="10" style="stroke:#181818;stroke-width:0.5;" width="15" x="221.5" y="51"/><rect fill="#F1F1F1" height="2" style="stroke:#181818;stroke-width:0.5;" width="4" x="219.5" y="53"/><rect fill="#F1F1F1" height="2" style="stroke:#181818;stroke-width:0.5;" width="4" x="219.5" y="57"/><text fill="#000000" font-family="sans-serif" font-size="14" font-weight="bold" lengthAdjust="spacing" textLength="67" x="47.5" y="78.9951">pgadmin</text><text fill="#000000" font-family="sans-serif" font-size="14" lengthAdjust="spacing" textLength="4" x="47.5" y="95.292">&#160;</text><text fill="#000000" font-family="sans-serif" font-size="14" lengthAdjust="spacing" textLength="169" x="47.5" y="111.5889">image: dpage/pgadmin4</text><text fill="#000000" font-family="sans-serif" font-size="14" lengthAdjust="spacing" textLength="99" x="47.5" y="127.8857">restart: always</text><text fill="#000000" font-family="sans-serif" font-size="14" lengthAdjust="spacing" textLength="4" x="47.5" y="144.1826">&#160;</text></g><!--entity bf68e6ab131f5ab4efb2d44db4301fa3--><g id="elem_bf68e6ab131f5ab4efb2d44db4301fa3"><ellipse cx="137" cy="249.49" fill="#F1F1F1" rx="8" ry="8" style="stroke:#181818;stroke-width:0.5;"/><text fill="#000000" font-family="sans-serif" font-size="14" lengthAdjust="spacing" textLength="18" x="128" y="279.4851">80</text></g><!--entity d2df63829f02a8b7b40d4452d37985bf--><g id="elem_d2df63829f02a8b7b40d4452d37985bf"><rect fill="#F1F1F1" height="78.8906" rx="2.5" ry="2.5" style="stroke:#181818;stroke-width:0.5;" width="137" x="301.5" y="62.3"/><rect fill="#F1F1F1" height="10" style="stroke:#181818;stroke-width:0.5;" width="15" x="418.5" y="67.3"/><rect fill="#F1F1F1" height="2" style="stroke:#181818;stroke-width:0.5;" width="4" x="416.5" y="69.3"/><rect fill="#F1F1F1" height="2" style="stroke:#181818;stroke-width:0.5;" width="4" x="416.5" y="73.3"/><text fill="#000000" font-family="sans-serif" font-size="14" font-weight="bold" lengthAdjust="spacing" textLength="97" x="316.5" y="95.2951">backend_api</text><text fill="#000000" font-family="sans-serif" font-size="14" lengthAdjust="spacing" textLength="4" x="316.5" y="111.592">&#160;</text><text fill="#000000" font-family="sans-serif" font-size="14" lengthAdjust="spacing" textLength="4" x="316.5" y="127.8889">&#160;</text></g><!--entity 5a03a35a8ee308a3d30e59cebd15676e--><g id="elem_5a03a35a8ee308a3d30e59cebd15676e"><ellipse cx="412" cy="249.49" fill="#F1F1F1" rx="8" ry="8" style="stroke:#181818;stroke-width:0.5;"/><text fill="#000000" font-family="sans-serif" font-size="14" lengthAdjust="spacing" textLength="36" x="394" y="279.4851">8000</text></g><!--entity 7d333ae2295794bd2d8cd1ad25e4c1c4--><g id="elem_7d333ae2295794bd2d8cd1ad25e4c1c4"><rect fill="#F1F1F1" height="39.2969" rx="2.5" ry="2.5" style="stroke:#181818;stroke-width:0.5;" width="70" x="314" y="476.49"/><polygon fill="#F1F1F1" points="367,481.49,367,495.49,379,495.49,379,487.49,373,481.49,367,481.49" style="stroke:#181818;stroke-width:0.5;"/><line style="stroke:#181818;stroke-width:0.5;" x1="373" x2="373" y1="481.49" y2="487.49"/><line style="stroke:#181818;stroke-width:0.5;" x1="379" x2="373" y1="487.49" y2="487.49"/><text fill="#000000" font-family="sans-serif" font-size="14" lengthAdjust="spacing" textLength="40" x="324" y="502.4851">/code</text></g><!--entity b3c00b35f11392a78dc90c9bd5e9e4fe--><g id="elem_b3c00b35f11392a78dc90c9bd5e9e4fe"><ellipse cx="137" cy="386.49" fill="#F1F1F1" rx="8" ry="8" style="stroke:#181818;stroke-width:0.5;"/><text fill="#000000" font-family="sans-serif" font-size="14" lengthAdjust="spacing" textLength="36" x="119" y="416.4851">5050</text></g><!--entity 1624c420083928ef3e240dd88f2e52f0--><g id="elem_1624c420083928ef3e240dd88f2e52f0"><ellipse cx="498" cy="386.49" fill="#F1F1F1" rx="8" ry="8" style="stroke:#181818;stroke-width:0.5;"/><text fill="#000000" font-family="sans-serif" font-size="14" lengthAdjust="spacing" textLength="36" x="480" y="416.4851">8000</text></g><!--entity 58b9e70b65a77700ba66e9c64d6b9f89--><g id="elem_58b9e70b65a77700ba66e9c64d6b9f89"><rect fill="#F1F1F1" height="39.2969" rx="2.5" ry="2.5" style="stroke:#181818;stroke-width:0.5;" width="34" x="332" y="594.78"/><polygon fill="#F1F1F1" points="349,599.78,349,613.78,361,613.78,361,605.78,355,599.78,349,599.78" style="stroke:#181818;stroke-width:0.5;"/><line style="stroke:#181818;stroke-width:0.5;" x1="355" x2="355" y1="599.78" y2="605.78"/><line style="stroke:#181818;stroke-width:0.5;" x1="361" x2="355" y1="605.78" y2="605.78"/><text fill="#000000" font-family="sans-serif" font-size="14" lengthAdjust="spacing" textLength="4" x="342" y="620.7751">.</text></g><!--link dd0cbcfb754ff3bdc32631c9166e8d91 to bf68e6ab131f5ab4efb2d44db4301fa3--><g id="link_dd0cbcfb754ff3bdc32631c9166e8d91_bf68e6ab131f5ab4efb2d44db4301fa3"><path codeLine="33" d="M137,157.84 C137,189.12 137,225.05 137,240.61 " fill="none" id="dd0cbcfb754ff3bdc32631c9166e8d91-bf68e6ab131f5ab4efb2d44db4301fa3" style="stroke:#181818;stroke-width:1.0;"/></g><!--link bf68e6ab131f5ab4efb2d44db4301fa3 to b3c00b35f11392a78dc90c9bd5e9e4fe--><g id="link_bf68e6ab131f5ab4efb2d44db4301fa3_b3c00b35f11392a78dc90c9bd5e9e4fe"><path codeLine="34" d="M137,258.13 C137,281.78 137,353.6 137,377.59 " fill="none" id="bf68e6ab131f5ab4efb2d44db4301fa3-b3c00b35f11392a78dc90c9bd5e9e4fe" style="stroke:#181818;stroke-width:1.0;"/></g><!--link d2df63829f02a8b7b40d4452d37985bf to 5a03a35a8ee308a3d30e59cebd15676e--><g id="link_d2df63829f02a8b7b40d4452d37985bf_5a03a35a8ee308a3d30e59cebd15676e"><path codeLine="35" d="M381.14,141.42 C390.96,175.49 404.5,222.45 409.77,240.75 " fill="none" id="d2df63829f02a8b7b40d4452d37985bf-5a03a35a8ee308a3d30e59cebd15676e" style="stroke:#181818;stroke-width:1.0;"/></g><!--link 5a03a35a8ee308a3d30e59cebd15676e to 1624c420083928ef3e240dd88f2e52f0--><g id="link_5a03a35a8ee308a3d30e59cebd15676e_1624c420083928ef3e240dd88f2e52f0"><path codeLine="36" d="M416.87,258.13 C431.94,281.78 477.69,353.6 492.97,377.59 " fill="none" id="5a03a35a8ee308a3d30e59cebd15676e-1624c420083928ef3e240dd88f2e52f0" style="stroke:#181818;stroke-width:1.0;"/></g><!--link 7d333ae2295794bd2d8cd1ad25e4c1c4 to 58b9e70b65a77700ba66e9c64d6b9f89--><g id="link_7d333ae2295794bd2d8cd1ad25e4c1c4_58b9e70b65a77700ba66e9c64d6b9f89"><path codeLine="37" d="M349,516.08 C349,537.7 349,572.87 349,594.5 " fill="none" id="7d333ae2295794bd2d8cd1ad25e4c1c4-58b9e70b65a77700ba66e9c64d6b9f89" style="stroke:#181818;stroke-width:1.0;"/><text fill="#000000" font-family="sans-serif" font-size="13" lengthAdjust="spacing" textLength="14" x="350" y="560.8469">rw</text></g><!--link d2df63829f02a8b7b40d4452d37985bf to 7d333ae2295794bd2d8cd1ad25e4c1c4--><g id="link_d2df63829f02a8b7b40d4452d37985bf_7d333ae2295794bd2d8cd1ad25e4c1c4"><path codeLine="38" d="M367.93,141.44 C363.5,224.19 353.5712,409.7586 350.3212,470.3886 " fill="none" id="d2df63829f02a8b7b40d4452d37985bf-to-7d333ae2295794bd2d8cd1ad25e4c1c4" style="stroke:#181818;stroke-width:1.0;stroke-dasharray:7.0,7.0;"/><polygon fill="#181818" points="350,476.38,354.476,467.607,350.2676,471.3872,346.4875,467.1788,350,476.38" style="stroke:#181818;stroke-width:1.0;"/><text fill="#000000" font-family="sans-serif" font-size="13" lengthAdjust="spacing" textLength="23" x="359" y="323.5569">use</text></g><!--SRC=[XPBTYjim48Nl_HJ2LsrWiv96lxdeHUa3zBwKCgCP1RE94vAKj9I-UsLxsUwMWX56O4PdlZDdy70utO_3Zs7ST-E9HVMVg5TuLHmZU_4Qa8s3N7toM5nsDYG2RqZzwbGv7S-dKSQR0kzHA6A1cYewaCJPLQfQ72KEHNtfDXkcpQRhXYFkPQVEf-jjVv5hrxuRNcuxXOSx_hnstTVkzpFAvptoSHXd7Wh0rcf4LqixPCadewF98RgiER_bOTQ5MbNqhbOWBc03c99D21EQcNdEY_mhA3wtw_7vl_iVshltgazw8QeXIK0oOAf7SjAWs3ac1zfKX1SR7x4yoSZVy3pC3oTkRRHKmuAKYGmb3OcbCiPGpJzMBDS0oUQgBIQAv7JhuYr3pCbJdQtGtnQJdHTGlQ1wR3c2noG2EY4mQF6v2B7n8GRfcikXOhcf_h4qvlbHP010iJRxc1qrZbJO85ilhfZYch-fYTV-UHvGj6wxKOs1R34cBbcNJ6sDihWgRv5CiAuugtLgnKagY6t6EALgnTkgNo5j5m-9iaHDmMECiNN2bcKkmN6WN5FkLZD_u8VrqDOA5fKrgwkXJIghgQmLp2ghWrpBSM5PcQxQgVvoxzUDRRUytNvONPv9x_jL-Zy0]--></g></svg>